<svg xmlns="http://www.w3.org/2000/svg"  viewBox="0 0 48 48" width="48px" height="48px"><path fill="#d6e5e5" d="M10.875,43.906c4.804,0,4.386,0.214,9.82,0.185c0.871-0.005,5.613-0.224,6.479-0.128	c2.132,0.238,4.283,0.052,6.425-0.044c5.983-0.269,7.909,0.202,9.248-2.242c1.003-1.833,0.561-4.37,0.664-6.458	c0.104-2.087-0.029-3.743,0.011-5.832c0.124-6.476-0.258-10.824-0.038-16.238c0.08-1.975,0.096-5.951-1.142-7.492	c-1.191-1.484-3.507-1.242-5.975-1.404c-5.163-0.339-7.646,0.305-11.919,0.283c-1.633-0.008-3.266-0.017-4.899-0.025	c-1.317-0.007-2.622,0.198-3.939,0.219c-1.225,0.02-4.91-0.233-6.165-0.131C8.19,4.702,6.715,4.539,5.474,6.193	C5.152,6.622,4.979,8.212,4.855,8.734c-0.233,0.98-0.119,6.462-0.068,6.975c0.48,4.804,0,6.369,0,11.174	c0,1.334,0.349,4.64,0.322,5.974c-0.069,3.375-0.064,5.173,0,6.246C5.373,43.524,6.308,44.094,10.875,43.906"/><path fill="#010101" d="M19.757,44.594c-2.242,0-3.356-0.048-4.438-0.094c-1.077-0.046-2.191-0.094-4.433-0.094	c-4.671,0.195-5.987-0.445-6.275-5.274c-0.068-1.13-0.068-3.01-0.001-6.286c0.014-0.685-0.077-1.941-0.165-3.156	c-0.081-1.113-0.157-2.164-0.157-2.807c0-1.755,0.064-3.099,0.121-4.285c0.103-2.131,0.184-3.815-0.118-6.839	c-0.052-0.523-0.177-6.064,0.079-7.14c0.032-0.136,0.067-0.35,0.109-0.596C4.642,7.047,4.79,6.271,5.074,5.893	c1.219-1.624,2.672-1.7,3.84-1.761c0.166-0.009,0.33-0.017,0.489-0.03c0.785-0.062,2.425,0.004,3.873,0.062	c0.958,0.04,1.834,0.079,2.325,0.067c0.602-0.01,1.2-0.059,1.799-0.107c0.7-0.057,1.413-0.11,2.151-0.112l4.898,0.025	c1.683,0.007,3.152-0.092,4.554-0.189c2.104-0.146,4.282-0.298,7.396-0.093c0.449,0.03,0.894,0.045,1.327,0.061	c2,0.072,3.89,0.14,5.005,1.529c1.234,1.538,1.362,5.104,1.252,7.826c-0.116,2.862-0.063,5.444-0.007,8.177	c0.051,2.46,0.104,5.005,0.045,8.05c-0.017,0.882-0.003,1.686,0.011,2.479c0.02,1.107,0.038,2.152-0.022,3.369	c-0.027,0.558-0.015,1.149-0.002,1.75c0.034,1.708,0.071,3.473-0.723,4.923c-1.238,2.262-2.996,2.308-6.846,2.408	c-0.824,0.021-1.758,0.046-2.818,0.094l-1.115,0.055c-1.764,0.093-3.585,0.188-5.388-0.014c-0.562-0.063-3.066,0.023-4.723,0.081	c-0.785,0.027-1.428,0.049-1.698,0.05C20.363,44.594,20.05,44.594,19.757,44.594z M10.864,43.406h0.011	c2.271,0,3.396,0.048,4.486,0.095c1.211,0.051,2.467,0.107,5.33,0.091c0.267-0.001,0.898-0.023,1.67-0.05	c2.315-0.08,4.278-0.14,4.868-0.075c1.718,0.193,3.499,0.1,5.225,0.009l1.122-0.056c1.068-0.048,2.007-0.073,2.837-0.094	c3.765-0.098,5.032-0.131,5.995-1.889c0.665-1.215,0.632-2.846,0.6-4.422c-0.013-0.625-0.025-1.24,0.004-1.82	c0.059-1.183,0.04-2.212,0.021-3.302c-0.015-0.804-0.028-1.62-0.012-2.515c0.058-3.024,0.006-5.559-0.045-8.01	c-0.057-2.749-0.11-5.346,0.007-8.238c0.145-3.553-0.231-6.163-1.031-7.159c-0.829-1.033-2.42-1.09-4.262-1.156	c-0.443-0.016-0.897-0.032-1.357-0.062c-3.045-0.2-5.188-0.051-7.26,0.093c-1.419,0.098-2.891,0.198-4.629,0.191l-4.898-0.025	c-0.664-0.002-1.385,0.053-2.064,0.108c-0.62,0.05-1.241,0.101-1.864,0.11c-0.506,0.008-1.416-0.029-2.382-0.068	c-1.42-0.058-3.031-0.124-3.75-0.064C9.315,5.112,9.143,5.121,8.967,5.13C7.858,5.188,6.812,5.243,5.873,6.493	c-0.16,0.213-0.328,1.214-0.409,1.694C5.418,8.461,5.378,8.698,5.342,8.85c-0.211,0.887-0.11,6.273-0.057,6.81	c0.31,3.097,0.223,4.899,0.122,6.987c-0.057,1.174-0.12,2.505-0.12,4.236c0,0.607,0.075,1.641,0.154,2.734	c0.09,1.238,0.183,2.518,0.168,3.25c-0.066,3.248-0.067,5.104-0.001,6.206c0.24,4.03,0.833,4.513,5.246,4.334L10.864,43.406z"/><path fill="#74cccf" d="M24.632,9.485c-4.217,0-6.313,1.158-9.144,2.652c-1.909,1.007-3.691,2.676-4.779,4.54	c-0.74,1.268-1.076,2.725-1.377,4.162c-0.559,2.668-1.026,5.469-0.276,8.09c0.469,1.638,1.363,3.898,2.271,5.34	c1.852,2.941,2.465,3.421,5.635,4.845c2.854,1.282,10.228,1.13,13.057-0.207c2.829-1.336,4.165-2.452,6.061-4.941	c2.147-2.818,2.918-4.811,3.074-8.351c0.176-3.999-0.272-7.96-2.421-10.777C34.05,11.324,29.367,10.058,24.632,9.485"/><path fill="#010101" d="M23.21,40.493c-2.467,0-4.865-0.302-6.244-0.922c-3.322-1.493-3.979-2.058-5.854-5.035	c-0.965-1.534-1.864-3.852-2.328-5.469c-0.788-2.752-0.3-5.625,0.268-8.33c0.318-1.524,0.669-3,1.435-4.312	c1.111-1.904,2.973-3.673,4.978-4.73l0.186-0.098c2.762-1.459,4.944-2.612,9.191-2.612c0.021,0,0.04,0.001,0.06,0.003	c3.881,0.47,9.393,1.556,12.438,5.549c1.916,2.511,2.742,6.142,2.524,11.102c-0.159,3.585-0.931,5.683-3.177,8.631	c-1.976,2.593-3.376,3.735-6.245,5.09C28.858,40.108,25.991,40.493,23.21,40.493z M24.811,9.985	c-3.979,0.005-5.958,1.051-8.694,2.497l-0.186,0.098c-1.847,0.974-3.56,2.6-4.581,4.35c-0.69,1.182-1.018,2.573-1.319,4.013	c-0.542,2.583-1.01,5.317-0.285,7.85c0.43,1.499,1.306,3.769,2.213,5.212c1.769,2.808,2.275,3.243,5.418,4.655	c2.689,1.208,9.896,1.093,12.638-0.203c2.731-1.29,3.994-2.32,5.878-4.792c2.128-2.794,2.822-4.68,2.972-8.069	c0.208-4.715-0.551-8.134-2.319-10.451C33.734,11.461,28.51,10.435,24.811,9.985z"/><path fill="#ed2224" d="M22.593,22.528c3.358-3.12,7.243-4.755,11.16-7.15c-1.42,2.442-2.198,3.326-3.535,5.814	c-0.288,0.536-1.39,2.174-1.668,2.715c-0.498,0.968-1.141,1.519-1.773,2.406c-0.079,0.11-0.176,0.23-0.311,0.239	c-0.14,0.009-0.853-1.278-0.947-1.382C24.291,23.807,23.594,23.749,22.593,22.528"/><path fill="#d6e5e5" d="M22.593,22.528c-1.746,1.492-2.8,3.776-4.017,5.723c-0.494,0.791-1.193,1.649-1.771,2.382	c-0.924,1.172-1.332,2.112-1.909,3.41c2.051-1.339,2.4-1.472,3.9-2.542c0.629-0.449,1.609-0.914,2.241-1.358	c1.734-1.217,3.512-1.858,5.428-3.593"/><path fill="#010101" d="M26.448,27.053c-0.349,0-0.535-0.284-1.122-1.252c-0.09-0.149-0.162-0.271-0.197-0.319	c-0.553-0.611-1.002-0.946-1.437-1.27c-0.462-0.344-0.939-0.7-1.486-1.367c-0.167-0.204-0.147-0.503,0.047-0.683	c2.413-2.243,5.038-3.701,7.816-5.245c1.12-0.622,2.278-1.266,3.423-1.966c0.196-0.119,0.446-0.091,0.61,0.069	s0.197,0.411,0.083,0.609c-0.622,1.069-1.117,1.834-1.596,2.575c-0.609,0.942-1.185,1.833-1.933,3.224	c-0.139,0.258-0.463,0.77-0.798,1.295c-0.342,0.537-0.729,1.146-0.864,1.411c-0.34,0.659-0.744,1.144-1.136,1.613	c-0.222,0.265-0.449,0.538-0.676,0.855c-0.082,0.115-0.301,0.422-0.686,0.447C26.481,27.052,26.465,27.053,26.448,27.053z M23.294,22.567c0.338,0.353,0.648,0.584,0.996,0.843c0.451,0.336,0.963,0.717,1.601,1.425c0.037,0.041,0.152,0.218,0.291,0.447	c0.077,0.127,0.212,0.349,0.334,0.54c0.211-0.276,0.396-0.498,0.576-0.715c0.373-0.446,0.726-0.868,1.014-1.428	c0.156-0.306,0.522-0.882,0.911-1.491c0.317-0.5,0.628-0.985,0.76-1.231c0.768-1.428,1.354-2.334,1.974-3.294	c0.177-0.273,0.355-0.55,0.542-0.844c-0.585,0.333-1.166,0.656-1.736,0.974C27.972,19.227,25.522,20.587,23.294,22.567z"/><path fill="#010101" d="M14.896,34.544c-0.116,0-0.231-0.04-0.324-0.119c-0.169-0.144-0.223-0.381-0.133-0.584l0.044-0.099	c0.553-1.244,0.989-2.227,1.929-3.418l0.211-0.267c0.519-0.655,1.107-1.397,1.528-2.071c0.285-0.457,0.562-0.932,0.84-1.412	c0.924-1.589,1.88-3.233,3.276-4.427c0.211-0.178,0.526-0.155,0.705,0.055c0.18,0.21,0.155,0.525-0.055,0.705	c-1.269,1.083-2.18,2.652-3.062,4.169c-0.284,0.489-0.566,0.974-0.857,1.439c-0.45,0.721-1.057,1.486-1.593,2.162l-0.209,0.265	c-0.486,0.618-0.824,1.169-1.124,1.753c0.13-0.081,0.25-0.157,0.365-0.229c0.706-0.441,1.172-0.733,2.068-1.372	c0.342-0.243,0.77-0.486,1.184-0.72c0.381-0.216,0.761-0.43,1.061-0.64c0.663-0.465,1.34-0.853,1.994-1.228	c1.093-0.625,2.222-1.272,3.385-2.326c0.205-0.184,0.521-0.17,0.706,0.035c0.186,0.205,0.17,0.521-0.034,0.706	c-1.244,1.126-2.421,1.801-3.56,2.453c-0.664,0.381-1.291,0.74-1.917,1.179c-0.322,0.227-0.731,0.459-1.142,0.691	c-0.393,0.222-0.798,0.452-1.097,0.665c-0.921,0.656-1.423,0.971-2.117,1.405c-0.453,0.283-0.995,0.623-1.8,1.148	C15.086,34.518,14.991,34.544,14.896,34.544z"/><path fill="#010101" d="M23.959,14.25c-0.22,0-0.421-0.145-0.481-0.367c-0.093-0.334-0.211-0.645-0.326-0.946	c-0.178-0.47-0.362-0.956-0.435-1.479c-0.038-0.273,0.152-0.526,0.426-0.564c0.267-0.04,0.525,0.152,0.564,0.426	c0.058,0.411,0.214,0.825,0.38,1.262c0.125,0.33,0.253,0.669,0.354,1.034c0.074,0.266-0.082,0.542-0.348,0.615	C24.048,14.244,24.003,14.25,23.959,14.25z"/><path fill="#010101" d="M26.68,13.621c-0.276,0-0.5-0.224-0.5-0.5c0-0.172,0.042-0.416,0.089-0.659	c0.033-0.175,0.07-0.349,0.07-0.472c0-0.276,0.224-0.5,0.5-0.5s0.5,0.224,0.5,0.5c0,0.172-0.042,0.416-0.089,0.659	c-0.033,0.175-0.07,0.349-0.07,0.472C27.18,13.397,26.956,13.621,26.68,13.621z"/><path fill="#010101" d="M29.396,15.444c-0.138,0-0.275-0.057-0.374-0.168c-0.184-0.207-0.164-0.522,0.042-0.706	c0.21-0.186,0.448-0.756,0.659-1.259c0.146-0.347,0.292-0.696,0.449-0.991c0.131-0.244,0.435-0.333,0.677-0.205	c0.244,0.13,0.336,0.433,0.206,0.677c-0.144,0.269-0.277,0.588-0.409,0.905c-0.277,0.66-0.538,1.284-0.918,1.621	C29.632,15.403,29.514,15.444,29.396,15.444z"/><path fill="#010101" d="M33.494,20.022c-0.191,0-0.375-0.111-0.457-0.298c-0.112-0.253,0.003-0.548,0.255-0.66	c0.306-0.135,0.809-0.395,1.312-0.655c0.527-0.272,1.056-0.544,1.376-0.685c0.251-0.112,0.547,0.003,0.659,0.256	c0.111,0.253-0.004,0.548-0.257,0.659c-0.307,0.135-0.813,0.397-1.319,0.658c-0.525,0.271-1.05,0.541-1.367,0.681	C33.631,20.009,33.562,20.022,33.494,20.022z"/><path fill="#010101" d="M37.087,23.081c-0.043,0-0.087-0.005-0.131-0.018c-0.264-0.071-0.91-0.11-1.257-0.075	c-0.273,0.024-0.521-0.171-0.548-0.447c-0.028-0.275,0.172-0.52,0.446-0.548c0.427-0.043,1.194-0.01,1.62,0.105	c0.267,0.072,0.424,0.347,0.352,0.613C37.509,22.935,37.308,23.081,37.087,23.081z"/><path fill="#010101" d="M37.467,27.052c-0.079,0-0.158-0.019-0.232-0.057c-0.609-0.32-0.938-0.41-1.817-0.648	c-0.284-0.077-0.621-0.169-1.037-0.287c-0.266-0.076-0.42-0.352-0.345-0.618s0.348-0.422,0.618-0.344	c0.412,0.117,0.745,0.208,1.025,0.284c0.902,0.245,1.313,0.357,2.021,0.728c0.244,0.128,0.339,0.431,0.21,0.675	C37.82,26.955,37.646,27.052,37.467,27.052z"/><path fill="#010101" d="M36.182,30.232c-0.044,0-0.088-0.006-0.133-0.018c-0.703-0.194-1.072-0.304-1.776-0.697	c-0.241-0.135-0.327-0.439-0.192-0.68c0.136-0.242,0.44-0.328,0.681-0.193c0.58,0.324,0.854,0.414,1.554,0.606	c0.267,0.073,0.423,0.349,0.35,0.615C36.603,30.087,36.401,30.232,36.182,30.232z"/><path fill="#010101" d="M33.753,34.284c-0.067,0-0.136-0.014-0.202-0.042l-0.212-0.091c-0.647-0.272-1.453-0.611-2.251-1.861	c-0.149-0.232-0.081-0.542,0.151-0.69c0.232-0.148,0.542-0.083,0.69,0.152c0.631,0.987,1.197,1.226,1.798,1.478l0.228,0.097	c0.252,0.111,0.367,0.407,0.255,0.659C34.128,34.172,33.944,34.284,33.753,34.284z"/><path fill="#010101" d="M30.366,36.627c-0.187,0-0.366-0.105-0.452-0.286c-0.096-0.203-0.226-0.366-0.376-0.556	c-0.165-0.208-0.353-0.443-0.498-0.75c-0.118-0.25-0.012-0.547,0.238-0.666c0.247-0.119,0.546-0.013,0.666,0.238	c0.096,0.203,0.226,0.366,0.376,0.556c0.165,0.208,0.353,0.443,0.498,0.75c0.118,0.25,0.012,0.547-0.238,0.666	C30.511,36.612,30.438,36.627,30.366,36.627z"/><path fill="#010101" d="M25.923,38.227c-0.255,0-0.472-0.194-0.497-0.453c-0.04-0.426-0.02-0.92,0.002-1.444	c0.024-0.58,0.05-1.18-0.002-1.758c-0.024-0.275,0.179-0.518,0.453-0.542c0.27-0.025,0.519,0.178,0.543,0.454	c0.058,0.644,0.03,1.306,0.005,1.889c-0.02,0.488-0.039,0.949-0.005,1.307c0.026,0.275-0.176,0.519-0.45,0.545	C25.955,38.227,25.939,38.227,25.923,38.227z"/><path fill="#010101" d="M21.998,38.415c-0.042,0-0.084-0.005-0.127-0.016c-0.267-0.07-0.427-0.343-0.356-0.61	c0.188-0.72,0.209-0.952,0.227-1.138c0.016-0.167,0.029-0.326,0.134-0.668c0.082-0.263,0.363-0.412,0.624-0.333	c0.265,0.081,0.413,0.36,0.333,0.625c-0.074,0.244-0.082,0.329-0.096,0.468c-0.019,0.211-0.046,0.5-0.255,1.299	C22.423,38.266,22.221,38.415,21.998,38.415z"/><path fill="#010101" d="M17.561,37.42c-0.07,0-0.142-0.015-0.209-0.046c-0.251-0.115-0.36-0.412-0.245-0.663	c0.282-0.613,0.692-1.106,1.09-1.583c0.251-0.3,0.487-0.584,0.691-0.894c0.153-0.232,0.463-0.295,0.693-0.143	c0.23,0.152,0.294,0.462,0.143,0.692c-0.235,0.357-0.502,0.676-0.759,0.985c-0.372,0.445-0.724,0.866-0.95,1.359	C17.931,37.312,17.75,37.42,17.561,37.42z"/><path fill="#010101" d="M11.266,29.262c-0.224,0-0.427-0.15-0.484-0.376c-0.068-0.268,0.093-0.54,0.36-0.608	c0.427-0.109,0.979-0.261,1.53-0.414c0.559-0.154,1.117-0.309,1.548-0.419c0.271-0.07,0.54,0.093,0.608,0.361	s-0.093,0.54-0.36,0.608c-0.427,0.109-0.979,0.261-1.53,0.414c-0.559,0.154-1.117,0.309-1.548,0.419	C11.348,29.257,11.307,29.262,11.266,29.262z"/><path fill="#010101" d="M12.806,25.073c-0.014,0-0.026,0-0.039-0.001c-0.553-0.042-0.805-0.111-1.123-0.198	c-0.158-0.043-0.339-0.092-0.598-0.147c-0.271-0.058-0.443-0.323-0.386-0.593c0.058-0.271,0.337-0.438,0.593-0.385	c0.284,0.061,0.48,0.114,0.653,0.161c0.288,0.079,0.479,0.13,0.937,0.166c0.275,0.021,0.481,0.262,0.46,0.537	C13.283,24.874,13.064,25.073,12.806,25.073z"/><path fill="#010101" d="M14.854,22.438c-0.07,0-0.141-0.015-0.208-0.045c-0.464-0.212-0.848-0.334-1.219-0.452	c-0.618-0.196-1.201-0.381-2.019-0.916c-0.231-0.151-0.296-0.461-0.145-0.692c0.151-0.232,0.464-0.295,0.691-0.145	c0.703,0.46,1.199,0.618,1.774,0.8c0.381,0.121,0.812,0.258,1.332,0.496c0.251,0.115,0.361,0.411,0.247,0.663	C15.225,22.329,15.043,22.438,14.854,22.438z"/><path fill="#010101" d="M14.854,18.324c-0.048,0-0.096-0.007-0.144-0.021c-0.635-0.191-1.159-0.47-1.557-0.829	c-0.205-0.185-0.222-0.501-0.036-0.706c0.185-0.204,0.502-0.221,0.706-0.036c0.283,0.255,0.689,0.467,1.174,0.613	c0.265,0.08,0.415,0.358,0.335,0.623C15.268,18.184,15.068,18.324,14.854,18.324z"/><path fill="#010101" d="M18.148,16.793c-0.125,0-0.25-0.046-0.347-0.14c-0.88-0.848-1.058-1.009-1.977-1.813	c-0.208-0.182-0.229-0.498-0.047-0.706c0.182-0.209,0.498-0.229,0.705-0.047c0.937,0.819,1.116,0.983,2.012,1.846	c0.199,0.192,0.205,0.508,0.014,0.707C18.41,16.742,18.279,16.793,18.148,16.793z"/><path fill="#010101" d="M20.261,13.78c-0.124,0-0.249-0.046-0.346-0.139c-0.256-0.245-0.476-0.527-0.651-0.838	c-0.137-0.24-0.052-0.545,0.188-0.682c0.235-0.135,0.544-0.052,0.681,0.188c0.129,0.227,0.288,0.432,0.474,0.609	c0.199,0.191,0.206,0.507,0.016,0.707C20.524,13.728,20.393,13.78,20.261,13.78z"/><path fill="#010101" d="M12.812,32.154c-0.167,0-0.33-0.083-0.425-0.235c-0.146-0.234-0.075-0.542,0.158-0.689	c0.033-0.021,0.809-0.505,1.414-0.78c0.252-0.115,0.549-0.004,0.662,0.249c0.114,0.251,0.003,0.548-0.248,0.662	c-0.545,0.247-1.29,0.712-1.297,0.717C12.993,32.129,12.901,32.154,12.812,32.154z"/></svg>